<svg xmlns="http://www.w3.org/2000/svg" width="48" height="48" fill="none" viewBox="0 0 48 48">
  <path fill="#000" d="M35.414 24.586a1.998 1.998 0 0 0-2.828 0l-3.188 3.188c-1.478-.44-4.236-1.44-5.984-3.188-1.748-1.748-2.748-4.506-3.188-5.984l3.188-3.188a2 2 0 0 0 0-2.828l-8-8a1.998 1.998 0 0 0-2.828 0L7.162 10.01a3.997 3.997 0 0 0-1.172 2.87c.046 2.848.8 12.74 8.596 20.536 7.796 7.796 17.688 8.548 20.538 8.596h.056a3.952 3.952 0 0 0 2.81-1.172l5.424-5.424a2 2 0 0 0 0-2.828l-8-8.002ZM35.16 38.01c-2.496-.042-11.036-.712-17.746-7.424-6.732-6.732-7.384-15.302-7.424-17.748L14 8.828 19.172 14l-2.586 2.586a2 2 0 0 0-.544 1.824c.048.23 1.222 5.684 4.542 9.004 3.32 3.32 8.774 4.494 9.004 4.542a1.982 1.982 0 0 0 1.824-.542L34 28.828 39.172 34l-4.012 4.01Z"/>
</svg>
